<?xml version="1.0" encoding="UTF-8" standalone="no"?>
<svg
   width="456"
   height="456"
   viewBox="0 0 456 456"
   version="1.1"
   xml:space="preserve"
   style="fill-rule:evenodd;clip-rule:evenodd;stroke-linejoin:round;stroke-miterlimit:2;"
   id="svg10"
   sodipodi:docname="splash.svg"
   inkscape:version="1.1 (c68e22c387, 2021-05-23)"
   xmlns:inkscape="http://www.inkscape.org/namespaces/inkscape"
   xmlns:sodipodi="http://sodipodi.sourceforge.net/DTD/sodipodi-0.dtd"
   xmlns="http://www.w3.org/2000/svg"
   xmlns:svg="http://www.w3.org/2000/svg"
   xmlns:sketch="http://www.bohemiancoding.com/sketch/ns"><defs
   id="defs14" /><sodipodi:namedview
   id="namedview12"
   pagecolor="#505050"
   bordercolor="#ffffff"
   borderopacity="1"
   inkscape:pageshadow="0"
   inkscape:pageopacity="0"
   inkscape:pagecheckerboard="1"
   showgrid="false"
   inkscape:zoom="0.9122807"
   inkscape:cx="154.00962"
   inkscape:cy="243.89423"
   inkscape:window-width="1920"
   inkscape:window-height="1017"
   inkscape:window-x="1912"
   inkscape:window-y="-8"
   inkscape:window-maximized="1"
   inkscape:current-layer="svg10" />
    
    
    
    
<g
   id="Page-1"
   stroke="none"
   stroke-width="1"
   fill="none"
   fill-rule="evenodd"
   sketch:type="MSPage"
   transform="translate(28,127.5)"><g
     id="Group"
     sketch:type="MSLayerGroup"><rect
       id="Rectangle-path"
       fill="#000000"
       sketch:type="MSShapeGroup"
       x="0"
       y="0.5"
       width="400"
       height="200" /><g
       transform="translate(50,50)"
       id="Shape"
       sketch:type="MSShapeGroup"><g
         id="g29"><path
           d="M 57.8,27.2 57.7,0.3 h -15 l 0.1,26.9 7.5,10.3 z"
           fill="#ffffff"
           id="path9" /><path
           d="m 42.8,73.3 v 27 h 15 v -27 L 50.3,63 Z"
           fill="#ffffff"
           id="path11" /><path
           d="M 57.8,73.3 73.6,95.1 85.7,86.3 69.9,64.5 57.8,60.6 Z"
           fill="#00f2e6"
           id="path13" /><path
           d="M 42.8,27.2 26.9,5.4 14.8,14.2 30.6,36 42.8,39.9 Z"
           fill="#00f2e6"
           id="path15" /><path
           d="M 30.6,36 5,27.7 0.4,41.9 26,50.3 l 12.1,-4 z"
           fill="#00b9f1"
           id="path17" /><path
           d="m 62.4,54.2 7.5,10.3 25.6,8.3 4.6,-14.2 -25.6,-8.3 z"
           fill="#00b9f1"
           id="path19" /><path
           d="M 74.5,50.3 100.1,41.9 95.5,27.7 69.9,36 62.4,46.3 Z"
           fill="#d63aff"
           id="path21" /><path
           d="M 26,50.3 0.4,58.6 5,72.8 30.6,64.5 38.1,54.2 Z"
           fill="#d63aff"
           id="path23" /><path
           d="M 30.6,64.5 14.8,86.3 26.9,95.1 42.8,73.3 V 60.6 Z"
           fill="#fb015b"
           id="path25" /><path
           d="M 69.9,36 85.7,14.2 73.6,5.4 57.8,27.2 v 12.7 z"
           fill="#fb015b"
           id="path27" /></g><path
         d="m 156.1,25.8 v 35 c 0,7.7 -6.3,14 -14,14 v -7 c 3.9,0 7,-3.1 7,-7 v -35 z m 127.8,7 h 15.8 v -7 h -38.5 v 7 h 15.7 v 42 h 7 z m -43.8,-7 v 35 c 0,3.9 -3.1,7 -7,7 -3.9,0 -7,-3.1 -7,-7 v -21 c 0,-7.7 -6.3,-14 -14,-14 -7.7,0 -14,6.3 -14,14 v 21 c 0,3.9 -3.1,7 -7,7 -3.9,0 -7,-3.1 -7,-7 v -35 h -7 v 35 c 0,7.7 6.3,14 14,14 7.7,0 14,-6.3 14,-14 v -21 c 0,-3.9 3.1,-7 7,-7 3.9,0 7,3.1 7,7 v 0 21 c 0,7.7 6.3,14 14,14 7.7,0 14,-6.3 14,-14 v -35 z"
         fill="#ffffff"
         id="path31" /></g></g></g></svg>
